<?xml version="1.0" encoding="UTF-8"?>
<svg version="1.1" xmlns="http://www.w3.org/2000/svg" width="765" height="765">
<path d="M0 0 C252.45 0 504.9 0 765 0 C765 252.45 765 504.9 765 765 C512.55 765 260.1 765 0 765 C0 512.55 0 260.1 0 0 Z " fill="#FEFEFE" transform="translate(0,0)"/>
<path d="M0 0 C0.70302246 0.00161133 1.40604492 0.00322266 2.13037109 0.00488281 C8.13767402 0.1455174 12.96336924 1.45263981 18.25 4.375 C19.301875 4.9525 20.35375 5.53 21.4375 6.125 C33.24888411 15.57410729 38.30781555 28.69496285 40.25 43.375 C43.03827383 75.01457041 34.98332595 108.27522352 15.25 133.375 C14.1053125 134.921875 14.1053125 134.921875 12.9375 136.5 C0.67181546 149.62142998 -13.51119606 157.17660179 -31.5625 157.8125 C-39.76166633 157.64648763 -49.33371523 156.08314238 -56.75 152.375 C-55.40942983 148.35328948 -52.82507955 147.23445917 -49.375 145.125 C-48.74376221 144.72877441 -48.11252441 144.33254883 -47.4621582 143.92431641 C-45.56292715 142.73325289 -43.65747548 141.55280408 -41.75 140.375 C-21.67641617 127.91553418 -5.40692864 113.31784094 2.25 90.375 C2.50894043 89.61340576 2.76788086 88.85181152 3.03466797 88.06713867 C5.42377332 80.358773 5.70160094 73.0928317 5.625 65.0625 C5.63660156 63.82693359 5.64820313 62.59136719 5.66015625 61.31835938 C5.65435547 59.52688477 5.65435547 59.52688477 5.6484375 57.69921875 C5.64505371 56.62760498 5.64166992 55.55599121 5.63818359 54.4519043 C4.86945908 48.35867468 1.84411546 44.29680588 -2.75 40.375 C-10.348057 37.84761284 -18.63835851 39.00632771 -25.75 42.375 C-32.66491179 46.31448519 -32.66491179 46.31448519 -38.75 51.375 C-40.8125 51.125 -40.8125 51.125 -42.75 50.375 C-45.03066818 45.81366363 -44.36585326 40.29665082 -43.75 35.375 C-38.4544649 19.98640742 -27.71942529 9.9738433 -13.75 2.375 C-9.17164976 0.46583403 -4.91788107 -0.01176808 0 0 Z " fill="#05B3FC" transform="translate(236.75,290.625)"/>
<path d="M0 0 C9.71716491 7.55274967 18.54776681 15.53681384 26.5078125 24.94921875 C27.18070312 25.73554688 27.85359375 26.521875 28.546875 27.33203125 C32.62237125 32.25185342 36.30008105 37.41546423 39.8828125 42.69921875 C40.31207031 43.32538086 40.74132812 43.95154297 41.18359375 44.59667969 C46.34339288 52.34874212 47.61550559 59.6807664 46.5078125 68.94921875 C44.49532186 74.30477235 41.6516175 77.4183771 36.5078125 79.94921875 C31.69063938 80.79583365 26.6960618 81.0989119 22.27734375 78.77734375 C15.78789719 73.40867581 13.66578636 66.68747894 11.2578125 58.88671875 C7.36388588 46.77425017 3.42399885 37.22667631 -7.4921875 29.94921875 C-13.64087776 29.34442954 -16.530442 29.95561871 -21.4921875 33.94921875 C-23.27565774 35.73268899 -22.91460141 38.08256629 -23.0546875 40.51171875 C-22.93602223 54.03955932 -13.85286885 65.96814476 -5.4921875 75.94921875 C-4.65945312 76.94566406 -3.82671875 77.94210937 -2.96875 78.96875 C6.02854974 89.39379497 16.68377994 98.64416294 29.5078125 103.94921875 C30.44367188 104.33851563 31.37953125 104.7278125 32.34375 105.12890625 C34.72274636 106.09516527 37.10829763 107.03536096 39.5078125 107.94921875 C39.0128125 109.43421875 39.0128125 109.43421875 38.5078125 110.94921875 C27.1651038 115.88197811 11.64248709 113.11026072 0.57592773 108.8034668 C-9.81057678 104.51325557 -19.04312838 99.42797956 -27.4921875 91.94921875 C-28.4615625 91.17578125 -29.4309375 90.40234375 -30.4296875 89.60546875 C-43.9475581 78.34057658 -54.22920291 59.29876727 -56.4921875 41.94921875 C-57.72760682 27.78601866 -57.45513087 14.05561275 -47.99609375 2.62890625 C-47.25166016 1.79746094 -47.25166016 1.79746094 -46.4921875 0.94921875 C-45.6671875 0.02109375 -44.8421875 -0.90703125 -43.9921875 -1.86328125 C-31.35625473 -12.91972243 -12.6052483 -8.96825014 0 0 Z " fill="#05B3FB" transform="translate(149.4921875,318.05078125)"/>
<path d="M0 0 C2.4375 1.5625 2.4375 1.5625 4 3 C4 3.66 4 4.32 4 5 C4.66 5 5.32 5 6 5 C6 3.02 6 1.04 6 -1 C11.61 -1 17.22 -1 23 -1 C23 21.11 23 43.22 23 66 C17.39 66 11.78 66 6 66 C5.67 64.02 5.34 62.04 5 60 C4.29875 60.598125 3.5975 61.19625 2.875 61.8125 C-5.65018257 68.29905196 -14.67260329 68.33193236 -25 67 C-34.17748803 64.32894005 -40.2915834 58.94939227 -45.2734375 50.95703125 C-50.00417783 42.28400731 -50.60389166 30.68135439 -48.31640625 21.15234375 C-44.60789505 11.19629916 -38.3524356 4.08135267 -29 -1 C-19.89652404 -4.1973702 -8.51586446 -5.10951868 0 0 Z " fill="#05B3FA" transform="translate(551,304)"/>
<path d="M0 0 C3.43970309 2.7953783 6.59837123 5.51598584 9.4375 8.9375 C12.6327013 12.75615522 16.20362289 15.7960106 20 19 C20.83015625 19.74121094 21.6603125 20.48242188 22.515625 21.24609375 C45.72019716 41.50148146 75.63450169 56.6714041 107 55 C123.68953284 53.52249772 139.61693995 45.30548044 151 33 C153.73537559 29.49826541 156.24627597 25.84864611 158.73828125 22.171875 C160.66541687 19.46922539 162.57164946 17.24497395 165 15 C163.13741645 21.1264259 160.84970969 26.74055638 157.8125 32.375 C157.41740234 33.11177979 157.02230469 33.84855957 156.61523438 34.60766602 C143.05889441 59.39678927 121.44497501 78.83853254 94.578125 87.80859375 C80.73168751 91.4723409 66.58996493 88.48745196 54.15234375 81.93359375 C28.16025945 65.99049372 7.75845892 37.94463879 0.421875 8.28515625 C-0.0947702 5.48666144 -0.22998735 2.83651062 0 0 Z " fill="#052C6E" transform="translate(102,399)"/>
<path d="M0 0 C11.16171705 0.74411447 19.92449467 4.92178095 27.5625 13.0625 C35.02797003 22.06956361 36.56885685 31.83417214 35.75 43.25 C33.86426736 53.08638915 28.1245947 60.12292648 20.29296875 66.13671875 C11.13341332 72.0940359 0.70053942 73.59010509 -10.0078125 71.78515625 C-19.47794606 69.55611367 -28.00612663 64.64625968 -33.25 56.25 C-38.32696663 46.23037804 -39.92693623 37.00017877 -37.125 26.0625 C-33.95339177 16.82926668 -28.14730313 9.21472051 -19.3828125 4.80859375 C-12.84376691 1.94674213 -7.101725 0.54628654 0 0 Z " fill="#09B2F9" transform="translate(421.25,299.75)"/>
<path d="M0 0 C4.47542449 3.46484477 8.81090265 8.04556739 10.81640625 13.40625 C11.66029452 22.91917237 11.36985434 31.01481151 6.00390625 39.15625 C1.55068058 43.73671069 -3.65244849 46.99251908 -10.05078125 47.7421875 C-11.04335938 47.75507813 -12.0359375 47.76796875 -13.05859375 47.78125 C-14.04601562 47.80960937 -15.0334375 47.83796875 -16.05078125 47.8671875 C-19.18359375 47.40625 -19.18359375 47.40625 -26.18359375 43.40625 C-26.51359375 50.33625 -26.84359375 57.26625 -27.18359375 64.40625 C-31.80359375 64.40625 -36.42359375 64.40625 -41.18359375 64.40625 C-41.18359375 42.62625 -41.18359375 20.84625 -41.18359375 -1.59375 C-36.56359375 -1.59375 -31.94359375 -1.59375 -27.18359375 -1.59375 C-26.85359375 -0.60375 -26.52359375 0.38625 -26.18359375 1.40625 C-25.60609375 0.931875 -25.02859375 0.4575 -24.43359375 -0.03125 C-17.76532446 -4.66199256 -6.82464741 -3.98935548 0 0 Z " fill="#082D6B" transform="translate(452.18359375,418.59375)"/>
<path d="M0 0 C6.27 0 12.54 0 19 0 C19 24.42 19 48.84 19 74 C31.87 74 44.74 74 58 74 C58 80.27 58 86.54 58 93 C38.86 93 19.72 93 0 93 C0 62.31 0 31.62 0 0 Z " fill="#01B4FD" transform="translate(319,278)"/>
<path d="M0 0 C0.42667969 0.3609375 0.85335937 0.721875 1.29296875 1.09375 C1.62296875 -0.22625 1.95296875 -1.54625 2.29296875 -2.90625 C6.58296875 -2.90625 10.87296875 -2.90625 15.29296875 -2.90625 C15.29296875 12.60375 15.29296875 28.11375 15.29296875 44.09375 C11.00296875 44.09375 6.71296875 44.09375 2.29296875 44.09375 C1.79796875 42.11375 1.79796875 42.11375 1.29296875 40.09375 C0.82246094 40.44308594 0.35195313 40.79242188 -0.1328125 41.15234375 C-0.75542969 41.60738281 -1.37804687 42.06242187 -2.01953125 42.53125 C-2.63441406 42.98371094 -3.24929688 43.43617188 -3.8828125 43.90234375 C-8.42908174 46.87153458 -13.48680058 46.7287427 -18.70703125 46.09375 C-26.08724402 43.78135537 -30.98299319 39.85170718 -34.70703125 33.09375 C-37.76995714 25.71488307 -37.81292942 17.45514868 -35.26953125 9.90625 C-32.79286984 4.34929645 -28.71193733 0.46853702 -23.70703125 -2.90625 C-15.79207333 -5.80076974 -6.70883839 -4.97975633 0 0 Z " fill="#082E6E" transform="translate(505.70703125,419.90625)"/>
<path d="M0 0 C2.6468894 1.07733042 4.61680647 2.37740015 7 4 C10.23065659 4.25144679 10.23065659 4.25144679 13.4375 2 C18.81782081 -0.76447423 24.08147129 -0.92154273 30 0 C35.31363179 2.07444185 38.52028996 4.83550397 41 10 C41.40169504 12.93931022 41.3499118 15.83887217 41.29296875 18.80078125 C41.28872391 19.63715622 41.28447906 20.47353119 41.28010559 21.33525085 C41.26337364 23.99466765 41.22573226 26.653314 41.1875 29.3125 C41.17244604 31.12043173 41.15875888 32.92837539 41.14648438 34.73632812 C41.11348816 39.15784689 41.06174428 43.57879302 41 48 C36.71 48 32.42 48 28 48 C27.95101562 45.88078125 27.90203125 43.7615625 27.8515625 41.578125 C27.79750976 39.51946114 27.7402193 37.460911 27.68261719 35.40234375 C27.64439976 33.97469602 27.60953428 32.54695437 27.578125 31.11914062 C27.53231599 29.06346132 27.4743502 27.00842446 27.4140625 24.953125 C27.3826416 23.71723633 27.3512207 22.48134766 27.31884766 21.20800781 C27.02118723 18.21317018 26.66803431 16.47055815 25 14 C22.11138291 12.55569145 20.20352299 12.62311494 17 13 C13.670153 15.61213101 12.17415976 17.12275324 11.34057617 21.3215332 C11.3170105 23.16751099 11.3170105 23.16751099 11.29296875 25.05078125 C11.27784744 25.70958786 11.26272614 26.36839447 11.24714661 27.04716492 C11.20441434 29.135962 11.19544735 31.2233102 11.1875 33.3125 C11.16434386 34.73506417 11.13897617 36.15759417 11.11132812 37.58007812 C11.0444798 41.05416509 11.02338414 44.5242667 11 48 C6.71 48 2.42 48 -2 48 C-2.0093457 47.08186523 -2.01869141 46.16373047 -2.02832031 45.21777344 C-2.07239931 41.80294722 -2.13403732 38.38936892 -2.20751953 34.97509766 C-2.23570088 33.49897804 -2.25692966 32.02270831 -2.27099609 30.54638672 C-2.29246698 28.42076943 -2.33913043 26.29695121 -2.390625 24.171875 C-2.41157227 22.8940918 -2.43251953 21.61630859 -2.45410156 20.29980469 C-3.08666847 16.47611314 -3.89100616 15.25134037 -7 13 C-10.55648365 12.55543954 -12.93774475 12.47802975 -16.18066406 14.0715332 C-18.82120068 16.8704595 -18.60280924 19.63516613 -18.609375 23.29296875 C-18.62591125 23.99899734 -18.64244751 24.70502594 -18.65948486 25.43244934 C-18.70801288 27.68422092 -18.72934438 29.93531709 -18.75 32.1875 C-18.77815599 33.71552886 -18.80808291 35.24352619 -18.83984375 36.77148438 C-18.91710595 40.51463484 -18.95757104 44.25564438 -19 48 C-23.62 48 -28.24 48 -33 48 C-33 32.49 -33 16.98 -33 1 C-28.38 1 -23.76 1 -19 1 C-18.67 1.99 -18.34 2.98 -18 4 C-17.2575 3.34 -16.515 2.68 -15.75 2 C-10.98890562 -1.16652358 -5.47691608 -0.7635379 0 0 Z " fill="#042C6C" transform="translate(360,416)"/>
<path d="M0 0 C2.375 1.625 2.375 1.625 4.375 3.625 C4.705 2.305 5.035 0.985 5.375 -0.375 C9.665 -0.375 13.955 -0.375 18.375 -0.375 C18.375 15.135 18.375 30.645 18.375 46.625 C14.085 46.625 9.795 46.625 5.375 46.625 C5.045 45.635 4.715 44.645 4.375 43.625 C3.84132813 43.9859375 3.30765625 44.346875 2.7578125 44.71875 C-3.09606892 48.36476611 -7.75310628 49.90030543 -14.625 48.625 C-22.42808007 46.18361716 -27.51484144 41.65123436 -31.625 34.625 C-33.87556851 28.38658202 -33.90699844 18.94925662 -31.5625 12.75 C-24.26328516 0.97707283 -13.93685786 -5.28639436 0 0 Z " fill="#072E6E" transform="translate(649.625,417.375)"/>
<path d="M0 0 C6.13249289 3.61033993 9.60983581 8.31254906 12.375 14.875 C12.83587877 17.65679538 12.89972687 20.3714533 12.875 23.1875 C12.86927979 23.9400708 12.86355957 24.6926416 12.85766602 25.46801758 C12.62549429 32.69973688 10.72688758 37.50110878 5.58984375 42.671875 C-1.14820348 48.68032476 -6.7451652 50.26927001 -15.7109375 50.1484375 C-22.01225605 49.55716096 -27.57399159 47.42708521 -32 42.8125 C-36.64678642 36.64758733 -39.43209577 28.80744279 -39.00390625 21.05859375 C-37.40195551 11.8267333 -31.62584711 5.20903926 -24.625 -0.625 C-17.3533309 -4.28545645 -7.18250864 -3.32742904 0 0 Z " fill="#07B3FA" transform="translate(181.625,257.125)"/>
<path d="M0 0 C0.74886475 0.00523682 1.49772949 0.01047363 2.26928711 0.01586914 C3.07817383 0.0190918 3.88706055 0.02231445 4.72045898 0.02563477 C5.5705957 0.03401367 6.42073242 0.04239258 7.29663086 0.05102539 C8.15063477 0.05553711 9.00463867 0.06004883 9.88452148 0.06469727 C12.00108749 0.07652166 14.11761771 0.0944577 16.23413086 0.11352539 C16.30382353 10.25836526 16.35703969 20.40314762 16.38956738 30.54817867 C16.40518371 35.25958181 16.42634789 39.97082043 16.46044922 44.68212891 C16.49318704 49.23385281 16.51101416 53.78541905 16.51876259 58.33725166 C16.52428031 60.06868532 16.53505478 61.80011093 16.55132103 63.53147697 C16.73001232 83.35008414 16.73001232 83.35008414 11.54272461 90.41821289 C2.42599685 98.06941238 -6.1382519 98.48461956 -17.76586914 98.11352539 C-17.76586914 92.83352539 -17.76586914 87.55352539 -17.76586914 82.11352539 C-16.17774414 81.98977539 -14.58961914 81.86602539 -12.95336914 81.73852539 C-9.27244383 81.45170004 -7.92827496 81.22179594 -4.76586914 79.11352539 C-3.60896862 75.64282384 -3.59835047 72.51547761 -3.57641602 68.90405273 C-3.56812271 68.17370316 -3.55982941 67.44335358 -3.55128479 66.69087219 C-3.53389837 65.1063388 -3.51872771 63.5217799 -3.50550842 61.93720627 C-3.48448137 59.43305494 -3.45746089 56.92903249 -3.42883301 54.42495728 C-3.35900116 48.20819499 -3.29950538 41.99134149 -3.23980713 35.7744751 C-3.18895987 30.51800625 -3.13417365 25.26160808 -3.07398987 20.00523758 C-3.04733274 17.53178224 -3.02657171 15.05832058 -3.00598145 12.58480835 C-2.98938669 11.07793865 -2.97251558 9.57107197 -2.95532227 8.06420898 C-2.95113785 7.37121201 -2.94695343 6.67821503 -2.94264221 5.96421814 C-2.86586131 0.18424243 -2.86586131 0.18424243 0 0 Z " fill="#02B3FD" transform="translate(473.765869140625,301.886474609375)"/>
<path d="M0 0 C2.87187924 2.87187924 4.43238296 5.61476593 6.25 9.25 C6.25 9.91 6.25 10.57 6.25 11.25 C2.29 12.24 -1.67 13.23 -5.75 14.25 C-6.678125 13.0434375 -6.678125 13.0434375 -7.625 11.8125 C-9.49164041 9.21125481 -9.49164041 9.21125481 -11.75 8.25 C-16.99768331 7.90588962 -20.56689172 7.6820547 -24.75 11.25 C-27.04331853 15.1814032 -27.14318905 18.76764479 -26.75 23.25 C-25.17275698 27.23066095 -24.33999089 28.85667274 -20.75 31.25 C-17.35975448 31.79588699 -14.13977874 31.80232817 -10.75 31.25 C-7.72590636 28.97872666 -7.72590636 28.97872666 -5.75 26.25 C-3.75 25.25 -3.75 25.25 -1.3671875 26.02734375 C-0.00980469 26.60162109 -0.00980469 26.60162109 1.375 27.1875 C2.74011719 27.75791016 2.74011719 27.75791016 4.1328125 28.33984375 C4.83148437 28.64019531 5.53015625 28.94054687 6.25 29.25 C4.8051948 36.65462666 -0.65814897 40.02099112 -6.4375 44.1875 C-13.67902246 46.51025249 -21.24194078 46.37131913 -28.1875 43.1875 C-34.61232419 39.47445226 -38.98675838 34.51899196 -41.27734375 27.4140625 C-42.98564033 19.59260542 -41.87145041 13.08526699 -37.75 6.25 C-28.59259882 -6.67071673 -13.24464184 -8.42840844 0 0 Z " fill="#0A2F6D" transform="translate(568.75,420.75)"/>
<path d="M0 0 C4.62 0 9.24 0 14 0 C14 4.29 14 8.58 14 13 C17.63 13 21.26 13 25 13 C25 16.63 25 20.26 25 24 C21.37 24 17.74 24 14 24 C14.14011038 27.81279106 14.28680438 31.62512562 14.4375 35.4375 C14.47681641 36.52611328 14.51613281 37.61472656 14.55664062 38.73632812 C14.59853516 39.77080078 14.64042969 40.80527344 14.68359375 41.87109375 C14.72025146 42.82943115 14.75690918 43.78776855 14.79467773 44.77514648 C14.75834424 46.97138925 14.75834424 46.97138925 16 48 C17.51469448 48.23192865 19.03754562 48.41215238 20.5625 48.5625 C21.38878906 48.64628906 22.21507812 48.73007812 23.06640625 48.81640625 C24.02353516 48.90728516 24.02353516 48.90728516 25 49 C25.02687279 50.81242052 25.04633715 52.62495233 25.0625 54.4375 C25.07410156 55.44683594 25.08570313 56.45617187 25.09765625 57.49609375 C25 60 25 60 24 61 C10.6808034 62.07612052 10.6808034 62.07612052 6.3125 59.3125 C2.12958003 55.12958003 0.13819448 51.23464231 -0.11352539 45.34277344 C-0.10828857 44.35825195 -0.10305176 43.37373047 -0.09765625 42.359375 C-0.09443359 41.28945313 -0.09121094 40.21953125 -0.08789062 39.1171875 C-0.07951172 38.00601563 -0.07113281 36.89484375 -0.0625 35.75 C-0.05798828 34.62335938 -0.05347656 33.49671875 -0.04882812 32.3359375 C-0.03705397 29.55723783 -0.0206084 26.77864591 0 24 C-2.64 24 -5.28 24 -8 24 C-8 20.37 -8 16.74 -8 13 C-5.36 13 -2.72 13 0 13 C0 8.71 0 4.42 0 0 Z " fill="#072E6E" transform="translate(587,404)"/>
<path d="M0 0 C4.61407796 2.61435561 7.98814603 5.97404469 9.51953125 11.1171875 C10.36899584 17.73715292 9.97037361 23.36578357 6.51953125 29.1171875 C1.78436436 33.85235439 -2.291025 35.82723807 -8.91796875 36.4296875 C-14.63811877 35.92791995 -18.22232908 34.37532717 -22.29296875 30.3046875 C-26.41765814 24.29442581 -27.55668828 18.3067778 -26.48046875 11.1171875 C-24.77146291 6.83367071 -22.21679864 3.85351739 -18.98046875 0.6171875 C-12.95374052 -1.96569603 -6.22538886 -2.21565021 0 0 Z " fill="#F7FDFE" transform="translate(547.48046875,318.8828125)"/>
<path d="M0 0 C4.27712856 2.35482359 7.00067314 5.34265225 8.89453125 9.84375 C10.57619283 16.00636078 10.63923224 21.93446639 7.4609375 27.5859375 C4.78155579 31.21054553 1.9122442 33.88427035 -2.4765625 35.1484375 C-8.93049329 35.90313102 -15.03294526 36.09506 -20.4765625 32.1484375 C-25.75441806 26.57736774 -26.95631732 21.35800134 -26.78515625 13.8671875 C-26.16950065 8.44318376 -23.58884155 4.82753123 -19.5390625 1.2109375 C-13.85378785 -2.47713937 -6.23383924 -2.14349677 0 0 Z " fill="#F8FDFE" transform="translate(428.4765625,318.8515625)"/>
<path d="M0 0 C4.62 0 9.24 0 14 0 C14 21.78 14 43.56 14 66 C9.38 66 4.76 66 0 66 C0 44.22 0 22.44 0 0 Z " fill="#0A2F6C" transform="translate(303,398)"/>
<path d="M0 0 C0 4.29 0 8.58 0 13 C-4.15039062 13.63476562 -4.15039062 13.63476562 -8.30078125 14.26953125 C-11.17630632 15.04771242 -12.23803669 15.64501344 -14 18 C-15.07955212 21.23865635 -15.20441741 23.79155838 -15.31640625 27.19921875 C-15.35830078 28.40771484 -15.40019531 29.61621094 -15.44335938 30.86132812 C-15.48267578 32.12396484 -15.52199219 33.38660156 -15.5625 34.6875 C-15.60568359 35.96173828 -15.64886719 37.23597656 -15.69335938 38.54882812 C-15.79954789 41.69908727 -15.90028813 44.8495292 -16 48 C-20.29 48 -24.58 48 -29 48 C-29 32.49 -29 16.98 -29 1 C-25.04 1 -21.08 1 -17 1 C-17 2.65 -17 4.3 -17 6 C-16.34 6 -15.68 6 -15 6 C-14.62875 5.071875 -14.62875 5.071875 -14.25 4.125 C-11.08996205 -1.24706451 -5.48809162 -0.16141446 0 0 Z " fill="#062B68" transform="translate(707,416)"/>
<path d="M0 0 C6.27 0 12.54 0 19 0 C19 24.42 19 48.84 19 74 C31.87 74 44.74 74 58 74 C58 80.27 58 86.54 58 93 C38.86 93 19.72 93 0 93 C0 62.31 0 31.62 0 0 Z M2 3 C2 31.71 2 60.42 2 90 C19.49 90 36.98 90 55 90 C56.21919865 83.69860186 56.21919865 83.69860186 56 76 C43.46 76 30.92 76 18 76 C17.93941406 70.81410156 17.87882812 65.62820313 17.81640625 60.28515625 C17.77593244 57.00845481 17.73516974 53.73176212 17.69335938 50.45507812 C17.62695946 45.24913427 17.56165534 40.04319222 17.50268555 34.8371582 C17.45509986 30.6420379 17.40275942 26.44700188 17.34705925 22.25198174 C17.32660934 20.64795455 17.30790071 19.04390423 17.29092598 17.4398365 C17.26694003 15.20077231 17.23687806 12.96186884 17.20532227 10.72290039 C17.18200584 8.80762291 17.18200584 8.80762291 17.15821838 6.85365295 C17.32377447 4.10148193 17.32377447 4.10148193 16 3 C11.38 3 6.76 3 2 3 Z " fill="#38B2E9" transform="translate(319,278)"/>
<path d="M0 0 C3.14933291 1.67121049 5.26672972 4.00008598 7.375 6.875 C8.68486187 11.32853036 8.40578932 14.94494778 6.75 19.25 C4.95874057 22.06483624 3.82793416 23.300309 1 25 C-3.05484817 25.66930094 -6.93692998 25.60028942 -11 25 C-14.50237429 22.47829051 -16.36202336 19.94138128 -18 16 C-18.24137178 11.50243923 -17.55333627 7.89678637 -15.1875 4.0625 C-10.65882706 -0.20739163 -6.06447238 -1.04052472 0 0 Z " fill="#F6F8FA" transform="translate(442,428)"/>
<path d="M0 0 C3.60597575 1.38101199 4.6911324 2.5313733 6.8125 5.75 C8.62966135 10.72328368 8.6530711 14.30201513 6.75 19.25 C4.95974276 22.06326137 3.82000134 23.29238673 1 25 C-3.76987187 25.91677203 -8.77638415 26.24309152 -13.1171875 23.81640625 C-16.5223779 20.41936224 -17.42148094 17.18691346 -17.6875 12.4375 C-17.39629627 7.00916383 -15.98890306 4.60900753 -12 1 C-8.30789552 -0.84605224 -4.03848091 -0.34397156 0 0 Z " fill="#F7F9FA" transform="translate(500,428)"/>
<path d="M0 0 C3.46069403 1.69888616 5.36595034 2.96246419 7.375 6.25 C8.4770359 11.09895797 8.82174639 15.23911489 6.6875 19.8125 C6.130625 20.534375 5.57375 21.25625 5 22 C4.59136719 22.52980469 4.18273437 23.05960937 3.76171875 23.60546875 C0.54899489 26.14857832 -3.17090265 25.51447359 -7.10546875 25.43359375 C-10.03543027 24.99469263 -11.15061587 24.63543518 -13.1875 22.5625 C-13.785625 21.716875 -14.38375 20.87125 -15 20 C-15.33 19.67 -15.66 19.34 -16 19 C-17.07279693 9.14559387 -17.07279693 9.14559387 -14.953125 4.90625 C-10.58627071 -0.33397515 -6.47670498 -0.78373573 0 0 Z " fill="#F9FAFC" transform="translate(647,428)"/>
<path d="M0 0 C3.86345353 0.05539001 6.19882712 0.7372694 9.25 3.25 C11.58067577 6.46855225 11.71741137 9.35490526 11.25 13.25 C8.12692308 18.95769231 8.12692308 18.95769231 4.25 20.25 C-0.96573948 20.75474898 -0.96573948 20.75474898 -3.75 20.25 C-6.6875 17.8125 -6.6875 17.8125 -8.75 15.25 C-9.08 14.92 -9.41 14.59 -9.75 14.25 C-10.04322866 11.31771337 -10.25004247 9.10508117 -9.75 6.25 C-7.3125 3.3125 -7.3125 3.3125 -4.75 1.25 C-3.75 0.25 -3.75 0.25 0 0 Z " fill="#0AB1F8" transform="translate(479.75,274.75)"/>
<path d="M0 0 C0.74886475 0.00523682 1.49772949 0.01047363 2.26928711 0.01586914 C3.07817383 0.0190918 3.88706055 0.02231445 4.72045898 0.02563477 C5.5705957 0.03401367 6.42073242 0.04239258 7.29663086 0.05102539 C8.15063477 0.05553711 9.00463867 0.06004883 9.88452148 0.06469727 C12.00108749 0.07652166 14.11761771 0.0944577 16.23413086 0.11352539 C15.90413086 1.10352539 15.57413086 2.09352539 15.23413086 3.11352539 C9.95413086 2.78352539 4.67413086 2.45352539 -0.76586914 2.11352539 C-0.75015869 4.36455078 -0.73444824 6.61557617 -0.71826172 8.93481445 C-0.668561 16.37071111 -0.63541824 23.80661508 -0.61043262 31.24263382 C-0.59477412 35.75128208 -0.57353252 40.25976021 -0.53955078 44.76831055 C-0.50696384 49.11901269 -0.48901752 53.46955115 -0.48123741 57.82036591 C-0.4756927 59.4805738 -0.46486524 61.1407727 -0.44867897 62.80091095 C-0.42691317 65.12569057 -0.4239018 67.44979314 -0.42529297 69.7746582 C-0.41450714 70.46158249 -0.40372131 71.14850677 -0.39260864 71.85624695 C-0.41240827 74.9124241 -0.63977717 76.89149373 -2.16215515 79.57220459 C-3.76586914 81.11352539 -3.76586914 81.11352539 -5.76586914 81.11352539 C-5.76586914 81.77352539 -5.76586914 82.43352539 -5.76586914 83.11352539 C-10.71586914 83.60852539 -10.71586914 83.60852539 -15.76586914 84.11352539 C-15.76586914 88.07352539 -15.76586914 92.03352539 -15.76586914 96.11352539 C-10.81586914 96.11352539 -5.86586914 96.11352539 -0.76586914 96.11352539 C-4.98840799 98.22479482 -6.90588437 98.33072509 -11.51586914 98.23852539 C-13.57836914 98.19727539 -15.64086914 98.15602539 -17.76586914 98.11352539 C-17.76586914 92.83352539 -17.76586914 87.55352539 -17.76586914 82.11352539 C-16.17774414 81.98977539 -14.58961914 81.86602539 -12.95336914 81.73852539 C-9.27244383 81.45170004 -7.92827496 81.22179594 -4.76586914 79.11352539 C-3.60896862 75.64282384 -3.59835047 72.51547761 -3.57641602 68.90405273 C-3.56812271 68.17370316 -3.55982941 67.44335358 -3.55128479 66.69087219 C-3.53389837 65.1063388 -3.51872771 63.5217799 -3.50550842 61.93720627 C-3.48448137 59.43305494 -3.45746089 56.92903249 -3.42883301 54.42495728 C-3.35900116 48.20819499 -3.29950538 41.99134149 -3.23980713 35.7744751 C-3.18895987 30.51800625 -3.13417365 25.26160808 -3.07398987 20.00523758 C-3.04733274 17.53178224 -3.02657171 15.05832058 -3.00598145 12.58480835 C-2.98938669 11.07793865 -2.97251558 9.57107197 -2.95532227 8.06420898 C-2.95113785 7.37121201 -2.94695343 6.67821503 -2.94264221 5.96421814 C-2.86586131 0.18424243 -2.86586131 0.18424243 0 0 Z " fill="#24A8E3" transform="translate(473.765869140625,301.886474609375)"/>
<path d="M0 0 C6.6 0.33 13.2 0.66 20 1 C20 23.77 20 46.54 20 70 C13.73 70 7.46 70 1 70 C1 69.67 1 69.34 1 69 C6.61 69 12.22 69 18 69 C18 46.89 18 24.78 18 2 C12.39 2 6.78 2 1 2 C1 3.98 1 5.96 1 8 C0.34 8 -0.32 8 -1 8 C-2.38232443 6.37373596 -3.71937515 4.7074998 -5 3 C-3.68 3.33 -2.36 3.66 -1 4 C-0.67 2.68 -0.34 1.36 0 0 Z " fill="#BAE5F1" transform="translate(556,301)"/>
<path d="M0 0 C4.29 0 8.58 0 13 0 C13 0.66 13 1.32 13 2 C9.37 2 5.74 2 2 2 C2 16.52 2 31.04 2 46 C5.3 46 8.6 46 12 46 C11.99476318 45.10692139 11.98952637 44.21384277 11.98413086 43.29370117 C11.96708214 39.97826492 11.95454653 36.6628753 11.94506836 33.34741211 C11.94004158 31.91283432 11.93321921 30.47826164 11.92456055 29.04370117 C11.91242248 26.98094418 11.90675514 24.91825496 11.90234375 22.85546875 C11.89710693 21.61434326 11.89187012 20.37321777 11.88647461 19.09448242 C12 16 12 16 13 13 C13.66 13 14.32 13 15 13 C14.67 24.22 14.34 35.44 14 47 C9.38 47 4.76 47 0 47 C0 31.49 0 15.98 0 0 Z " fill="#20335F" transform="translate(327,417)"/>
<path d="M0 0 C0.86625 0.06445312 1.7325 0.12890625 2.625 0.1953125 C5.66057843 1.06404712 6.42603562 2.18942328 8 4.875 C9.11911712 8.23235137 9.11365586 10.75705386 9.09765625 14.29296875 C9.09443359 15.54658203 9.09121094 16.80019531 9.08789062 18.09179688 C9.07951172 19.40212891 9.07113281 20.71246094 9.0625 22.0625 C9.05748317 23.39778481 9.05292059 24.73307141 9.04882812 26.06835938 C9.03702695 29.33728473 9.02056297 32.60611991 9 35.875 C12.3 35.875 15.6 35.875 19 35.875 C18.98952637 35.00697754 18.97905273 34.13895508 18.96826172 33.24462891 C18.93420284 30.02800472 18.90911233 26.81147233 18.89013672 23.59472656 C18.88007123 22.20179219 18.86641766 20.80887898 18.84912109 19.41601562 C18.8248978 17.4154564 18.81459186 15.41474385 18.8046875 13.4140625 C18.79421387 12.20959473 18.78374023 11.00512695 18.77294922 9.76416016 C19 6.875 19 6.875 21 4.875 C20.67 15.765 20.34 26.655 20 37.875 C15.71 37.875 11.42 37.875 7 37.875 C6.9906543 36.95686523 6.98130859 36.03873047 6.97167969 35.09277344 C6.92760069 31.67794722 6.86596268 28.26436892 6.79248047 24.85009766 C6.76429912 23.37397804 6.74307034 21.89770831 6.72900391 20.42138672 C6.70753302 18.29576943 6.66086957 16.17195121 6.609375 14.046875 C6.58842773 12.7690918 6.56748047 11.49130859 6.54589844 10.17480469 C5.91351496 6.35222192 5.11699523 5.11695142 2 2.875 C-1.77282526 2.54405042 -4.40735548 2.67745183 -8 3.875 C-8 3.215 -8 2.555 -8 1.875 C-4.65404401 -0.35563732 -3.84657103 -0.35489197 0 0 Z " fill="#112757" transform="translate(351,426.125)"/>
<path d="M0 0 C4.29 0 8.58 0 13 0 C13 15.51 13 31.02 13 47 C8.71 47 4.42 47 0 47 C0.33 46.01 0.66 45.02 1 44 C4.3 44.33 7.6 44.66 11 45 C11 30.48 11 15.96 11 1 C7.7 1 4.4 1 1 1 C0.67 2.32 0.34 3.64 0 5 C0 3.35 0 1.7 0 0 Z " fill="#1C315D" transform="translate(508,417)"/>
<path d="M0 0 C3.96 0 7.92 0 12 0 C12 15.51 12 31.02 12 47 C8.04 47 4.08 47 0 47 C0 46.34 0 45.68 0 45 C3.3 45 6.6 45 10 45 C10 30.48 10 15.96 10 1 C6.7 1.33 3.4 1.66 0 2 C0 1.34 0 0.68 0 0 Z " fill="#122553" transform="translate(656,417)"/>
<path d="M0 0 C0.74886475 0.00523682 1.49772949 0.01047363 2.26928711 0.01586914 C3.07817383 0.0190918 3.88706055 0.02231445 4.72045898 0.02563477 C5.5705957 0.03401367 6.42073242 0.04239258 7.29663086 0.05102539 C8.15063477 0.05553711 9.00463867 0.06004883 9.88452148 0.06469727 C12.00108749 0.07652166 14.11761771 0.0944577 16.23413086 0.11352539 C15.90413086 1.10352539 15.57413086 2.09352539 15.23413086 3.11352539 C9.95413086 2.78352539 4.67413086 2.45352539 -0.76586914 2.11352539 C-1.09586914 26.53352539 -1.42586914 50.95352539 -1.76586914 76.11352539 C-2.09586914 76.11352539 -2.42586914 76.11352539 -2.76586914 76.11352539 C-2.7889936 66.35201551 -2.80678475 56.59051209 -2.81768131 46.82898045 C-2.82290992 42.29678445 -2.83000715 37.76460712 -2.84130859 33.23242188 C-2.85213828 28.86229709 -2.85814615 24.49219031 -2.86074638 20.12205315 C-2.86260049 18.45101576 -2.86622082 16.77997942 -2.8715992 15.10894966 C-2.87881073 12.77654988 -2.87986004 10.44422546 -2.87939453 8.11181641 C-2.88298981 7.41410629 -2.88658508 6.71639618 -2.89028931 5.99754333 C-2.87765516 0.18500064 -2.87765516 0.18500064 0 0 Z " fill="#72BEDE" transform="translate(473.765869140625,301.886474609375)"/>
<path d="M0 0 C1 2 1 2 0.29296875 4.37109375 C-2.66749931 10.39041401 -8.12059086 14.85619259 -14.0234375 17.875 C-16.66076976 19.3760903 -19.00973275 21.18084658 -21.4375 23 C-24.73852833 25.44959068 -27.91461911 27.60307663 -31.625 29.375 C-35.05658574 30.60327802 -35.05658574 30.60327802 -36 33 C-36.99 33 -37.98 33 -39 33 C-39 33.66 -39 34.32 -39 35 C-41.475 35.495 -41.475 35.495 -44 36 C-40.06800531 31.65085853 -35.91649942 29.01422641 -30.8125 26.1875 C-19.20986696 19.54261368 -7.52571225 11.28856837 0 0 Z " fill="#36A7DF" transform="translate(227,404)"/>
<path d="M0 0 C0.763125 0.5775 1.52625 1.155 2.3125 1.75 C1.6525 2.08 0.9925 2.41 0.3125 2.75 C-1.35762706 1.81858299 -3.02653585 0.88093365 -4.640625 -0.14453125 C-10.37453112 -3.24127826 -15.51822128 -3.53545523 -21.875 -3.4375 C-23.08446289 -3.4365332 -23.08446289 -3.4365332 -24.31835938 -3.43554688 C-30.8278197 -3.44646716 -30.8278197 -3.44646716 -36.1875 0.125 C-37.53967868 1.54478761 -38.88490901 2.97208513 -40.1875 4.4375 C-42.15842441 6.16205886 -44.23515165 6.88836409 -46.6875 7.75 C-44.63916527 2.42432971 -40.42549006 -1.22139364 -35.625 -4.0625 C-23.79658557 -8.84419945 -10.54228838 -6.89682417 0 0 Z " fill="#22A7E3" transform="translate(146.6875,316.25)"/>
<path d="M0 0 C0.99 0.33 1.98 0.66 3 1 C-8.57067845 9.16753773 -21.91217331 12.55524775 -36 11 C-48.67995651 8.66002175 -48.67995651 8.66002175 -54 6 C-53.67 5.01 -53.34 4.02 -53 3 C-52.34 3 -51.68 3 -51 3 C-51 3.99 -51 4.98 -51 6 C-40.49392942 8.53425122 -29.74915603 8.63176544 -19 9 C-19 8.34 -19 7.68 -19 7 C-18.05125 6.9175 -17.1025 6.835 -16.125 6.75 C-10.50737234 5.95732861 -4.05709686 4.05709686 0 0 Z " fill="#48ADDC" transform="translate(234,437)"/>
<path d="M0 0 C0.33 0 0.66 0 1 0 C1.0697072 9.75368664 1.12291612 19.50731338 1.15543652 29.261199 C1.17104973 33.79100319 1.19220805 38.32063613 1.22631836 42.8503418 C1.25906753 47.22700227 1.27688564 51.60349868 1.28463173 55.98027229 C1.29014744 57.64472089 1.30091792 59.30916116 1.31719017 60.97353935 C1.47366997 77.65179336 1.47366997 77.65179336 -2 85 C-3.485 85.99 -3.485 85.99 -5 87 C-5 85.35 -5 83.7 -5 82 C-4.01 82 -3.02 82 -2 82 C-1.20409083 77.06602124 -0.85382849 72.33147094 -0.79467773 67.32055664 C-0.77982834 66.22174667 -0.77982834 66.22174667 -0.76467896 65.10073853 C-0.73334775 62.70390949 -0.70842009 60.30706071 -0.68359375 57.91015625 C-0.66299964 56.23863744 -0.64200256 54.56712355 -0.62062073 52.89561462 C-0.56565364 48.51451626 -0.51613343 44.13337288 -0.46777344 39.75219727 C-0.41737221 35.27421097 -0.36178373 30.79628934 -0.30664062 26.31835938 C-0.19936967 17.54562773 -0.09785687 8.77284168 0 0 Z " fill="#1499DC" transform="translate(489,305)"/>
<path d="M0 0 C3.66172475 0.62678171 6.8818995 1.64451846 10.3125 3.0625 C11.19550781 3.42472656 12.07851562 3.78695313 12.98828125 4.16015625 C13.65214844 4.43730469 14.31601563 4.71445312 15 5 C14.67 5.99 14.34 6.98 14 8 C3.16017955 12.71406145 -12.07916074 10.34598251 -22.75 6.375 C-24.35875 5.694375 -24.35875 5.694375 -26 5 C-22.48014134 3.76967903 -20.49546498 4.29436102 -17 5.4375 C-8.14671191 7.86004152 0.90532298 7.24264455 10 7 C7.53721199 4.53721199 5.29323018 4.00228745 2 3 C2 2.34 2 1.68 2 1 C1.34 0.67 0.68 0.34 0 0 Z " fill="#2DA9E2" transform="translate(174,421)"/>
<path d="M0 0 C2.475 0.99 2.475 0.99 5 2 C5 2.66 5 3.32 5 4 C5.66 4 6.32 4 7 4 C7 4.66 7 5.32 7 6 C7.66 6 8.32 6 9 6 C10.9016483 13.25003415 11.19265798 20.36244066 11.1875 27.8125 C11.18814453 28.71959717 11.18878906 29.62669434 11.18945312 30.5612793 C11.15221348 35.14725736 10.93197381 39.48924678 10 44 C9.34 44 8.68 44 8 44 C7.67 45.32 7.34 46.64 7 48 C6.67 47.34 6.34 46.68 6 46 C6.30317139 45.1028125 6.60634277 44.205625 6.91870117 43.28125 C8.77563318 37.64630616 8.32757419 31.88496535 8.3125 26 C8.32861328 24.741875 8.34472656 23.48375 8.36132812 22.1875 C8.36197266 20.970625 8.36261719 19.75375 8.36328125 18.5 C8.36626221 17.3965625 8.36924316 16.293125 8.37231445 15.15625 C7.7881535 10.20409735 5.577941 6.33171681 2.3125 2.625 C1.549375 1.75875 0.78625 0.8925 0 0 Z " fill="#3FB1E5" transform="translate(234,330)"/>
<path d="M0 0 C3.49003472 0.87250868 4.9458972 1.93712378 7.3125 4.6875 C10.2976148 10.46278332 9.91974973 17.7308235 9 24 C5.8488277 29.60430011 2.03161366 33.61600246 -3.875 36.3125 C-7.8887525 37.19552555 -10.87874175 37.39250079 -15 37 C-17.74609375 34.9765625 -17.74609375 34.9765625 -20 33 C-19.154375 33.10699219 -18.30875 33.21398437 -17.4375 33.32421875 C-7.79343615 34.42351462 -7.79343615 34.42351462 1 31 C5.09202488 27.32845888 6.73468646 23.84015967 7.23828125 18.44921875 C7.44045511 10.92622287 6.38381158 6.74636282 1.25 1.0625 C0.8375 0.711875 0.425 0.36125 0 0 Z " fill="#34AAE0" transform="translate(549,320)"/>
<path d="M0 0 C3.96 0 7.92 0 12 0 C12 0.33 12 0.66 12 1 C8.7 1.33 5.4 1.66 2 2 C2 5.96 2 9.92 2 14 C6.95 14 11.9 14 17 14 C12.77746115 16.11126943 10.85998477 16.2171997 6.25 16.125 C3.15625 16.063125 3.15625 16.063125 0 16 C0 10.72 0 5.44 0 0 Z " fill="#49AFDD" transform="translate(456,384)"/>
<path d="M0 0 C0.66 0 1.32 0 2 0 C2.0093457 0.78648926 2.01869141 1.57297852 2.02832031 2.38330078 C2.08217282 5.96449238 2.16579363 9.54439883 2.25 13.125 C2.26417969 14.3625 2.27835938 15.6 2.29296875 16.875 C2.41767019 25.77487494 2.41767019 25.77487494 7 33 C9.60437233 34.41190564 9.60437233 34.41190564 12 35 C10.375 35.8125 10.375 35.8125 8 36 C3.65861476 33.22151345 1.6683514 31.37216703 0.35302734 26.23388672 C-0.41405002 21.37997396 -0.20060109 16.46203216 -0.125 11.5625 C-0.11597656 10.44939453 -0.10695313 9.33628906 -0.09765625 8.18945312 C-0.0742224 5.45940977 -0.041414 2.7298199 0 0 Z " fill="#213561" transform="translate(587,428)"/>
<path d="M0 0 C0.33 0 0.66 0 1 0 C1.02689216 1.47906892 1.04634621 2.95827483 1.0625 4.4375 C1.07410156 5.26121094 1.08570313 6.08492188 1.09765625 6.93359375 C1 9 1 9 0 10 C-0.28464384 15.50311418 0.21188627 19.72977006 2 25 C2.309375 25.99193359 2.309375 25.99193359 2.625 27.00390625 C4.27233492 31.93655114 6.47046105 35.18428222 10 39 C9.67 39.66 9.34 40.32 9 41 C-0.58599439 29.18165075 -3.06208022 20.22915029 -2 5 C-0.98828125 2.0703125 -0.98828125 2.0703125 0 0 Z " fill="#32A7DD" transform="translate(504,323)"/>
<path d="M0 0 C-3 1 -3 1 -5.125 0.5625 C-10.90049336 -0.56748783 -16.68761416 -0.82220498 -22 2 C-22.33 2.33 -22.66 2.66 -23 3 C-24.99958364 3.04080783 -27.00045254 3.04254356 -29 3 C-29 1.35 -29 -0.3 -29 -2 C-28.01 -0.515 -28.01 -0.515 -27 1 C-26.4225 0.525625 -25.845 0.05125 -25.25 -0.4375 C-18.09759129 -5.40445049 -7.26396192 -3.96216105 0 0 Z " fill="#152D5D" transform="translate(453,419)"/>
<path d="M0 0 C0.33 0.66 0.66 1.32 1 2 C0.22729492 4.13891602 0.22729492 4.13891602 -1.01953125 6.75390625 C-1.46490234 7.69041016 -1.91027344 8.62691406 -2.36914062 9.59179688 C-2.84544922 10.57212891 -3.32175781 11.55246094 -3.8125 12.5625 C-4.27720703 13.54669922 -4.74191406 14.53089844 -5.22070312 15.54492188 C-8.73916525 22.86958262 -8.73916525 22.86958262 -11 24 C-10.42415568 21.61435923 -9.77772405 19.33317216 -9 17 C-9.99 16.67 -10.98 16.34 -12 16 C-11.46890625 15.34773438 -10.9378125 14.69546875 -10.390625 14.0234375 C-6.7080143 9.46721477 -3.1294384 4.95494413 0 0 Z " fill="#1D3769" transform="translate(266,414)"/>
<path d="M0 0 C0 4.29 0 8.58 0 13 C-2.31 13 -4.62 13 -7 13 C-7 12.34 -7 11.68 -7 11 C-5.35 11 -3.7 11 -2 11 C-2 8.03 -2 5.06 -2 2 C-4.64 2 -7.28 2 -10 2 C-10.66 3.32 -11.32 4.64 -12 6 C-12.99 5.34 -13.98 4.68 -15 4 C-9.85826268 -0.21886139 -6.60751254 -0.40045531 0 0 Z " fill="#182D5B" transform="translate(707,416)"/>
<path d="M0 0 C0.495 0.99 0.495 0.99 1 2 C-3.875 1.125 -3.875 1.125 -5 0 C-14.21529357 -0.52345789 -22.95791985 0.11412854 -32 2 C-25.67536994 -6.18481538 -8.01910333 -4.96420682 0 0 Z " fill="#2AABE4" transform="translate(551,304)"/>
<path d="M0 0 C4.06805518 0.92984118 5.65456692 2.59663126 7.8125 6 C10 9.66153846 10 9.66153846 10 12 C6.04 12.99 2.08 13.98 -2 15 C-2.61875 14.21625 -3.2375 13.4325 -3.875 12.625 C-5.89858661 10.03162353 -5.89858661 10.03162353 -8 8 C-5.625 8.3125 -5.625 8.3125 -3 9 C-2.01 10.485 -2.01 10.485 -1 12 C2.08365871 12.2502157 2.08365871 12.2502157 5 12 C5.85974801 9.70705512 5.85974801 9.70705512 6 7 C4.15554062 4.71032629 2.62637553 3.31318776 0 2 C0 1.34 0 0.68 0 0 Z " fill="#1B3262" transform="translate(565,420)"/>
<path d="M0 0 C4.29 0 8.58 0 13 0 C13 4.29 13 8.58 13 13 C12.67 13 12.34 13 12 13 C12 9.37 12 5.74 12 2 C8.7 2 5.4 2 2 2 C2 5.63 2 9.26 2 13 C1.34 13 0.68 13 0 13 C0 8.71 0 4.42 0 0 Z " fill="#182F5F" transform="translate(587,404)"/>
<path d="M0 0 C0.66 0 1.32 0 2 0 C1.6596875 1.8253125 1.6596875 1.8253125 1.3125 3.6875 C0.97801503 6.58980038 1.02130708 8.07153093 1.875 10.9375 C5.11103867 14.07836106 8.63330922 13.89930063 13 14 C13 13.34 13 12.68 13 12 C14.65 11.67 16.3 11.34 18 11 C17.1875 12.9375 17.1875 12.9375 16 15 C12.2882681 16.23724397 8.85008649 16.6979689 5 16 C2.0625 13.5625 2.0625 13.5625 0 11 C-0.33 10.67 -0.66 10.34 -1 10 C-1.23880597 2.47761194 -1.23880597 2.47761194 0 0 Z " fill="#40AADC" transform="translate(471,279)"/>
<path d="M0 0 C1.32 0 2.64 0 4 0 C4 1.65 4 3.3 4 5 C3.34 4.01 2.68 3.02 2 2 C1.46632813 2.3609375 0.93265625 2.721875 0.3828125 3.09375 C-5.58350217 6.80979374 -10.03025953 7.65477729 -17 7 C-17 6.34 -17 5.68 -17 5 C-15.82630859 4.80083984 -15.82630859 4.80083984 -14.62890625 4.59765625 C-13.61699219 4.42105469 -12.60507812 4.24445313 -11.5625 4.0625 C-10.55316406 3.88847656 -9.54382813 3.71445312 -8.50390625 3.53515625 C-6.0712562 3.25248903 -6.0712562 3.25248903 -5 2 C-3.33382885 1.95936168 -1.66611905 1.957279 0 2 C0 1.34 0 0.68 0 0 Z " fill="#2C426D" transform="translate(652,459)"/>
<path d="M0 0 C2.97 0 5.94 0 9 0 C9 0.66 9 1.32 9 2 C6.69 2 4.38 2 2 2 C2.33 3.98 2.66 5.96 3 8 C4.98 8.66 6.96 9.32 9 10 C9 10.33 9 10.66 9 11 C6.03 11 3.06 11 0 11 C0 7.37 0 3.74 0 0 Z " fill="#082052" transform="translate(579,417)"/>
<path d="M0 0 C1.98 0.66 3.96 1.32 6 2 C4.92855498 7.49115573 2.26420871 10.14379424 -1.890625 13.5859375 C-4.55123686 15.36953286 -6.81022375 15.92025559 -10 16 C-9.34 15.34 -8.68 14.68 -8 14 C-7.01 14 -6.02 14 -5 14 C-5 13.34 -5 12.68 -5 12 C-3.36368108 10.95107762 -1.69514137 9.95093297 0 9 C1.2678956 7.95509265 1.2678956 7.95509265 1.125 5.625 C1.11343738 2.88906952 1.11343738 2.88906952 0 0 Z " fill="#132B5C" transform="translate(569,448)"/>
<path d="M0 0 C0.33 0 0.66 0 1 0 C1.01417969 0.90621094 1.02835937 1.81242187 1.04296875 2.74609375 C1.32409902 9.92631279 1.87874404 15.21128366 5.94140625 21.23046875 C7 23 7 23 7 26 C2.22871159 22.00243403 0.18848599 18.12023495 -1 12 C-1.26467623 8.31378193 -1.34196914 4.6827446 -1 1 C-0.67 0.67 -0.34 0.34 0 0 Z " fill="#192D5C" transform="translate(470,434)"/>
<path d="M0 0 C0.99 0.33 1.98 0.66 3 1 C6.95671668 9.20652349 6.95879335 16.47171329 4 25 C3.67 25.66 3.34 26.32 3 27 C2.34 27 1.68 27 1 27 C1.32355469 26.14148438 1.64710938 25.28296875 1.98046875 24.3984375 C4.47318445 16.08938518 3.65859862 7.77452207 0 0 Z " fill="#DDF9FD" transform="translate(192,366)"/>
<path d="M0 0 C3.63 0 7.26 0 11 0 C11 3.63 11 7.26 11 11 C7.7 11 4.4 11 1 11 C1 10.67 1 10.34 1 10 C3.64 10 6.28 10 9 10 C9 7.36 9 4.72 9 2 C6.03 2 3.06 2 0 2 C0 1.34 0 0.68 0 0 Z " fill="#162954" transform="translate(601,417)"/>
<path d="M0 0 C0.33 0 0.66 0 1 0 C0.25 6.625 0.25 6.625 -2 10 C-2.24246783 13.20379124 -2.24246783 13.20379124 -2.125 16.6875 C-2.10695313 17.86699219 -2.08890625 19.04648437 -2.0703125 20.26171875 C-2.04710937 21.16535156 -2.02390625 22.06898438 -2 23 C-2.66 22.67 -3.32 22.34 -4 22 C-4.55728135 7.11852392 -4.55728135 7.11852392 -1 1 C-0.67 0.67 -0.34 0.34 0 0 Z " fill="#132B5C" transform="translate(621,426)"/>
<path d="M0 0 C1 2 1 2 0.3125 4.35546875 C-1.12298225 7.24779459 -2.69545055 9.0630225 -5 11.3125 C-5.70125 12.00988281 -6.4025 12.70726562 -7.125 13.42578125 C-9 15 -9 15 -11 15 C-10.44507838 11.18384668 -8.8312837 9.53605107 -6.0625 6.9375 C-3.65451669 4.66062286 -1.85163848 2.77745772 0 0 Z " fill="#2AABE8" transform="translate(227,404)"/>
<path d="M0 0 C1.01964844 0.01546875 2.03929687 0.0309375 3.08984375 0.046875 C5.83460441 0.23442763 8.38388975 0.63831 11.0625 1.25 C11.3925 2.24 11.7225 3.23 12.0625 4.25 C11.53398438 4.09015625 11.00546875 3.9303125 10.4609375 3.765625 C4.50477927 2.48514799 -3.19435342 1.92554658 -8.75 4.75 C-9.471875 5.245 -10.19375 5.74 -10.9375 6.25 C-9.04281967 0.56595901 -5.64487424 -0.14236757 0 0 Z " fill="#31AAE1" transform="translate(536.9375,315.75)"/>
<path d="M0 0 C0 0.66 0 1.32 0 2 C-0.99 2.33 -1.98 2.66 -3 3 C-5.2657127 5.15242706 -7.42386651 7.35184983 -9.5 9.6875 C-11.47092441 11.41205886 -13.54765165 12.13836409 -16 13 C-13.92037133 7.59296547 -9.64961445 3.95170065 -4.75 1.125 C-2 0 -2 0 0 0 Z " fill="#2CAFE9" transform="translate(116,311)"/>
<path d="M0 0 C3.6875 1.3125 3.6875 1.3125 6 3 C6.33 3.99 6.66 4.98 7 6 C6.34 6 5.68 6 5 6 C4.67 5.34 4.34 4.68 4 4 C-0.30814844 2.98368605 -4.46391815 2.89248896 -8.875 2.9375 C-10.02742187 2.94652344 -11.17984375 2.95554687 -12.3671875 2.96484375 C-13.23601563 2.97644531 -14.10484375 2.98804688 -15 3 C-11.30574644 -1.79872112 -5.49345173 -0.54354733 0 0 Z " fill="#142C5C" transform="translate(646,416)"/>
<path d="M0 0 C0.66 0.33 1.32 0.66 2 1 C1.67515625 1.56203125 1.3503125 2.1240625 1.015625 2.703125 C-1.79858391 9.06756669 0.10492951 16.60413709 2 23 C1.01 22.67 0.02 22.34 -1 22 C-3.67285155 16.23226771 -3.73772034 10.65579324 -2.0625 4.625 C-1 2 -1 2 0 0 Z " fill="#32A9E2" transform="translate(522,325)"/>
<path d="M0 0 C0 0.66 0 1.32 0 2 C-6.34315351 4.8723714 -12.02955081 5.86708334 -19 5 C-19.99 4.34 -20.98 3.68 -22 3 C-21.67 2.34 -21.34 1.68 -21 1 C-20.01 1.33 -19.02 1.66 -18 2 C-16.02345815 2.11953769 -14.04261544 2.17526196 -12.0625 2.1875 C-10.50208984 2.20876953 -10.50208984 2.20876953 -8.91015625 2.23046875 C-5.57218841 1.96611962 -3.20250678 0 0 0 Z " fill="#35ACE3" transform="translate(432,351)"/>
<path d="M0 0 C0.99 0.33 1.98 0.66 3 1 C-10.32486072 9.52576602 -10.32486072 9.52576602 -19 9 C-19 8.34 -19 7.68 -19 7 C-17.576875 6.87625 -17.576875 6.87625 -16.125 6.75 C-10.50737234 5.95732861 -4.05709686 4.05709686 0 0 Z " fill="#2AA8E3" transform="translate(234,437)"/>
<path d="M0 0 C0.33 0 0.66 0 1 0 C1.21221057 5.8888434 0.55320433 10.83290313 -1 16.5 C-1.28617187 17.59054687 -1.28617187 17.59054687 -1.578125 18.703125 C-2.04337245 20.47106531 -2.52043593 22.23588933 -3 24 C-3.33 24 -3.66 24 -4 24 C-4 21.69 -4 19.38 -4 17 C-3.34 17 -2.68 17 -2 17 C-2.02320313 16.19175781 -2.04640625 15.38351562 -2.0703125 14.55078125 C-2.08835937 13.48214844 -2.10640625 12.41351563 -2.125 11.3125 C-2.14820313 10.25675781 -2.17140625 9.20101563 -2.1953125 8.11328125 C-1.99858729 4.97748141 -1.33057654 2.82354627 0 0 Z " fill="#22A7E5" transform="translate(274,363)"/>
<path d="M0 0 C0.66 0 1.32 0 2 0 C2.38671875 0.79664063 2.7734375 1.59328125 3.171875 2.4140625 C6.43261754 9.20450296 6.43261754 9.20450296 10.4375 15.5625 C10.953125 16.366875 11.46875 17.17125 12 18 C11.67 18.99 11.34 19.98 11 21 C9.53417699 18.62934797 8.07729849 16.25391839 6.625 13.875 C6.2125 13.20984375 5.8 12.5446875 5.375 11.859375 C3.02683037 7.99625721 1.24353129 4.38652246 0 0 Z " fill="#172E5E" transform="translate(110,426)"/>
<path d="M0 0 C0.33 0 0.66 0 1 0 C0.99097656 0.63164062 0.98195313 1.26328125 0.97265625 1.9140625 C1.21141393 9.11831605 3.20644609 14.21452496 6.64868164 20.40283203 C7.48053006 21.90966481 8.24629952 23.45259818 9 25 C8.67 25.66 8.34 26.32 8 27 C7.34 26.34 6.68 25.68 6 25 C6 24.01 6 23.02 6 22 C5.01 21.67 4.02 21.34 3 21 C-0.712965 14.56724994 -0.32773035 7.17365331 0 0 Z " fill="#55B7E3" transform="translate(125,355)"/>
<path d="M0 0 C5.94 0.33 11.88 0.66 18 1 C18 1.33 18 1.66 18 2 C12.39 2 6.78 2 1 2 C1 3.98 1 5.96 1 8 C0.34 8 -0.32 8 -1 8 C-2.38232443 6.37373596 -3.71937515 4.7074998 -5 3 C-3.68 3.33 -2.36 3.66 -1 4 C-0.67 2.68 -0.34 1.36 0 0 Z " fill="#ABDFEE" transform="translate(556,301)"/>
<path d="M0 0 C0 3 0 3 -1.609375 4.67578125 C-4.67067007 6.37149862 -6.77261665 6.30089294 -10.25 6.1875 C-11.86648437 6.14689453 -11.86648437 6.14689453 -13.515625 6.10546875 C-14.74539062 6.05326172 -14.74539062 6.05326172 -16 6 C-16 5.34 -16 4.68 -16 4 C-14.89591797 3.94392578 -14.89591797 3.94392578 -13.76953125 3.88671875 C-6.39587342 3.47015527 -6.39587342 3.47015527 0 0 Z " fill="#CDF2FA" transform="translate(191,394)"/>
<path d="M0 0 C0.66 0 1.32 0 2 0 C2.67154933 1.28913487 3.33708859 2.58140204 4 3.875 C4.37125 4.59429687 4.7425 5.31359375 5.125 6.0546875 C6 8 6 8 6 10 C6.66 10 7.32 10 8 10 C10.125 14.625 10.125 14.625 9 18 C7.68144905 15.75335738 6.37006028 13.50302694 5.0625 11.25 C4.68931641 10.61578125 4.31613281 9.9815625 3.93164062 9.328125 C2.14463236 6.23708368 0.75114727 3.48532332 0 0 Z " fill="#2BA8E1" transform="translate(98,376)"/>
<path d="M0 0 C1.32 0.33 2.64 0.66 4 1 C4 1.66 4 2.32 4 3 C4.66 3 5.32 3 6 3 C7.2890625 4.53125 7.2890625 4.53125 8.625 6.5 C9.07101563 7.1496875 9.51703125 7.799375 9.9765625 8.46875 C10.48316406 9.22671875 10.48316406 9.22671875 11 10 C8 10 8 10 5.95703125 8.3203125 C5.24933594 7.59585937 4.54164063 6.87140625 3.8125 6.125 C2.73935547 5.04605469 2.73935547 5.04605469 1.64453125 3.9453125 C0 2 0 2 0 0 Z " fill="#1E3665" transform="translate(132,459)"/>
<path d="M0 0 C1.14662109 -0.00773437 1.14662109 -0.00773437 2.31640625 -0.015625 C4.4375 0.25 4.4375 0.25 7.4375 2.25 C7.4375 2.91 7.4375 3.57 7.4375 4.25 C6.87160156 4.08757812 6.30570313 3.92515625 5.72265625 3.7578125 C3.36575745 3.23405721 1.28587338 3.11684138 -1.125 3.125 C-1.88941406 3.12242187 -2.65382813 3.11984375 -3.44140625 3.1171875 C-5.75248495 3.17092616 -5.75248495 3.17092616 -8.5625 4.25 C-8.5625 3.59 -8.5625 2.93 -8.5625 2.25 C-5.58784237 0.54245166 -3.42389168 -0.02317355 0 0 Z " fill="#1B3261" transform="translate(643.5625,425.75)"/>
<path d="M0 0 C0.33 0 0.66 0 1 0 C1.04898437 0.71285156 1.09796875 1.42570312 1.1484375 2.16015625 C1.58128523 7.70508491 2.24028816 12.72086449 4 18 C3.34 17.67 2.68 17.34 2 17 C2 16.34 2 15.68 2 15 C1.34 15 0.68 15 0 15 C-0.19390729 12.68802845 -0.37996367 10.3753971 -0.5625 8.0625 C-0.71912109 6.13083984 -0.71912109 6.13083984 -0.87890625 4.16015625 C-0.91886719 3.11730469 -0.95882813 2.07445312 -1 1 C-0.67 0.67 -0.34 0.34 0 0 Z " fill="#34A9E2" transform="translate(401,330)"/>
<path d="M0 0 C3.1875 -0.3125 3.1875 -0.3125 7 0 C9.98087575 2.45094228 11.86351998 4.79527998 14 8 C13.625 10.1875 13.625 10.1875 13 12 C11 10 11 10 10.0625 7.5625 C8.96364248 4.91231422 8.31941862 3.65672759 6 2 C2.89160979 1.2730774 2.89160979 1.2730774 0 1 C0 0.67 0 0.34 0 0 Z " fill="#2B426E" transform="translate(387,418)"/>
<path d="M0 0 C0.33 0.66 0.66 1.32 1 2 C-0.22103436 4.29460081 -1.47962592 6.44093623 -2.875 8.625 C-3.25269531 9.23601562 -3.63039063 9.84703125 -4.01953125 10.4765625 C-4.97899971 12.00624886 -5.98579322 13.50604395 -7 15 C-7.33 15 -7.66 15 -8 15 C-8 13.35 -8 11.7 -8 10 C-7.34 9.67 -6.68 9.34 -6 9 C-5.71125 8.236875 -5.4225 7.47375 -5.125 6.6875 C-3.87898624 3.71091157 -2.37769684 2.13992716 0 0 Z " fill="#29A7E3" transform="translate(261,407)"/>
<path d="M0 0 C4.06805518 0.92984118 5.65456692 2.59663126 7.8125 6 C10 9.66153846 10 9.66153846 10 12 C8.68 12.33 7.36 12.66 6 13 C6.0825 12.0925 6.165 11.185 6.25 10.25 C6.30409468 6.92725947 6.30409468 6.92725947 4.125 4.6875 C2.11266198 2.97049329 2.11266198 2.97049329 0 2 C0 1.34 0 0.68 0 0 Z " fill="#283C65" transform="translate(565,420)"/>
<path d="M0 0 C3.86610406 0.52244649 5.32700126 1.27458952 8 4 C9.37229925 4.9314842 10.76940337 5.82734303 12.1875 6.6875 C12.90292969 7.12449219 13.61835938 7.56148438 14.35546875 8.01171875 C14.89816406 8.33785156 15.44085938 8.66398437 16 9 C15.01 9.495 15.01 9.495 14 10 C11.7578125 8.92578125 11.7578125 8.92578125 9.125 7.3125 C8.26132813 6.79300781 7.39765625 6.27351563 6.5078125 5.73828125 C4.03596277 4.02492746 2.05202 2.19041205 0 0 Z " fill="#30A6E0" transform="translate(127,413)"/>
<path d="M0 0 C5.70163258 -0.34209795 10.14590444 -0.43338466 15 3 C16.16015625 5.61328125 16.16015625 5.61328125 17 8 C16.443125 7.57847656 15.88625 7.15695312 15.3125 6.72265625 C10.07554003 2.96301438 6.45894361 1.23487068 0 1 C0 0.67 0 0.34 0 0 Z " fill="#20A5E1" transform="translate(134,346)"/>
<path d="M0 0 C0.33 0.66 0.66 1.32 1 2 C-1.52930196 4.52930196 -4.19593635 6.78011627 -7 9 C-7.66 9 -8.32 9 -9 9 C-7.55536047 5.62917442 -5.75336875 3.41962708 -3 1 C-2.01 0.67 -1.02 0.34 0 0 Z " fill="#0A2966" transform="translate(257,430)"/>
<path d="M0 0 C1.65 0.33 3.3 0.66 5 1 C4.01 1.33 3.02 1.66 2 2 C1.71125 2.639375 1.4225 3.27875 1.125 3.9375 C-0.39098648 6.71680854 -2.05867273 7.07115981 -5 8 C-3.62845496 5.04590299 -2.01136276 2.55991624 0 0 Z " fill="#243A68" transform="translate(564,446)"/>
<path d="M0 0 C0.99 1.485 0.99 1.485 2 3 C2.61875 2.505 3.2375 2.01 3.875 1.5 C6 0 6 0 8 0 C7.125 3.875 7.125 3.875 6 5 C4.00041636 5.04080783 1.99954746 5.04254356 0 5 C0 3.35 0 1.7 0 0 Z " fill="#304776" transform="translate(424,417)"/>
<path d="M0 0 C5.61 0 11.22 0 17 0 C16.01 1.485 16.01 1.485 15 3 C10.05 2.67 5.1 2.34 0 2 C0 1.34 0 0.68 0 0 Z " fill="#CEF4FA" transform="translate(160,306)"/>
<path d="M0 0 C3.91211733 1.15585285 6.8745041 2.35534962 10 5 C8.375 5.75 8.375 5.75 6 6 C2.75 4.1875 2.75 4.1875 0 2 C0 1.34 0 0.68 0 0 Z " fill="#213968" transform="translate(535,458)"/>
<path d="M0 0 C0.99 1.485 0.99 1.485 2 3 C3.65 2.01 5.3 1.02 7 0 C6.60196439 2.88575819 6.20990931 3.82189513 3.9375 5.75 C3.298125 6.1625 2.65875 6.575 2 7 C2 6.34 2 5.68 2 5 C1.34 5 0.68 5 0 5 C0 3.35 0 1.7 0 0 Z " fill="#284174" transform="translate(340,417)"/>
<path d="M0 0 C2.97 0.495 2.97 0.495 6 1 C6 1.66 6 2.32 6 3 C7.2065625 3.433125 7.2065625 3.433125 8.4375 3.875 C11 5 11 5 12 7 C7.39104317 5.68315519 3.85859765 3.84801255 0 1 C0 0.67 0 0.34 0 0 Z " fill="#2AA8E2" transform="translate(395,363)"/>
<path d="M0 0 C4.29 0.66 8.58 1.32 13 2 C13 2.66 13 3.32 13 4 C5.625 4.5 5.625 4.5 0 0 Z " fill="#1CA5E3" transform="translate(529,353)"/>
<path d="M0 0 C0.33 0.66 0.66 1.32 1 2 C0.22265625 4.1640625 0.22265625 4.1640625 -0.9375 6.625 C-1.31777344 7.44226563 -1.69804687 8.25953125 -2.08984375 9.1015625 C-2.39019531 9.72804688 -2.69054687 10.35453125 -3 11 C-3.99 10.34 -4.98 9.68 -6 9 C-4.02 6.03 -2.04 3.06 0 0 Z " fill="#38466B" transform="translate(266,414)"/>
<path d="M0 0 C0.66 0.99 1.32 1.98 2 3 C-0.97 5.475 -0.97 5.475 -4 8 C-4.33 7.01 -4.66 6.02 -5 5 C-3.35 3.35 -1.7 1.7 0 0 Z " fill="#163268" transform="translate(537,420)"/>
<path d="M0 0 C1.343231 2.686462 0.67960047 3.69297114 -0.25 6.5 C-0.62898438 7.69109375 -0.62898438 7.69109375 -1.015625 8.90625 C-2 11 -2 11 -5 13 C-5 11.35 -5 9.7 -5 8 C-4.01 8 -3.02 8 -2 8 C-1.855625 6.865625 -1.71125 5.73125 -1.5625 4.5625 C-1 1 -1 1 0 0 Z " fill="#34ADE4" transform="translate(489,379)"/>
<path d="M0 0 C0 0.99 0 1.98 0 3 C-3.4019487 5.09350689 -6.05272412 5.17942163 -10 5 C-9.34 4.34 -8.68 3.68 -8 3 C-6.68 3 -5.36 3 -4 3 C-4 2.34 -4 1.68 -4 1 C-2.68 0.67 -1.36 0.34 0 0 Z " fill="#29A2DF" transform="translate(488,290)"/>
<path d="M0 0 C4.85963179 0.60745397 8.7405518 2.72758967 13 5 C12.67 5.66 12.34 6.32 12 7 C7.69235185 5.43358249 3.93828536 3.31663844 0 1 C0 0.67 0 0.34 0 0 Z " fill="#213863" transform="translate(150,476)"/>
<path d="M0 0 C0.99 0.66 1.98 1.32 3 2 C1.25 4.0625 1.25 4.0625 -1 6 C-3.25 5.75 -3.25 5.75 -5 5 C-3.35 3.35 -1.7 1.7 0 0 Z " fill="#1B3569" transform="translate(478,420)"/>
<path d="M0 0 C0.33 0 0.66 0 1 0 C1.05406122 1.93719378 1.09282025 3.87481921 1.125 5.8125 C1.14820313 6.89144531 1.17140625 7.97039062 1.1953125 9.08203125 C1 12 1 12 -1 15 C-1.66 15 -2.32 15 -3 15 C-2.690625 14.195625 -2.38125 13.39125 -2.0625 12.5625 C-0.81434483 8.37750913 -0.3662304 4.33693899 0 0 Z " fill="#C7F1F9" transform="translate(196,378)"/>
<path d="M0 0 C0.33 0 0.66 0 1 0 C1 2.97 1 5.94 1 9 C0.01 9.33 -0.98 9.66 -2 10 C-1.125 2.25 -1.125 2.25 0 0 Z " fill="#38B7EC" transform="translate(504,323)"/>
<path d="M0 0 C0.66 0 1.32 0 2 0 C2.598125 0.94875 3.19625 1.8975 3.8125 2.875 C6.10464788 6.14949697 7.24180292 6.95605637 11 8 C9.375 8.8125 9.375 8.8125 7 9 C1.45096636 5.19183966 1.45096636 5.19183966 0.125 1.6875 C0.08375 1.130625 0.0425 0.57375 0 0 Z " fill="#162A56" transform="translate(588,455)"/>
<path d="M0 0 C1.29608947 0.93137592 2.58671632 1.8703566 3.875 2.8125 C4.59429687 3.33457031 5.31359375 3.85664063 6.0546875 4.39453125 C8 6 8 6 10 9 C9.01 9 8.02 9 7 9 C6.67 8.01 6.34 7.02 6 6 C5.0409375 5.5359375 5.0409375 5.5359375 4.0625 5.0625 C1.52197156 3.75374293 1.14668824 2.54533936 0 0 Z " fill="#203968" transform="translate(109,407)"/>
<path d="M0 0 C4.39158329 1.4638611 4.87947433 3.97831338 7 8 C6.01 8 5.02 8 4 8 C0 2.74285714 0 2.74285714 0 0 Z " fill="#243966" transform="translate(471,451)"/>
<path d="M0 0 C0 2.31 0 4.62 0 7 C-0.66 7 -1.32 7 -2 7 C-2 6.34 -2 5.68 -2 5 C-3.32 4.67 -4.64 4.34 -6 4 C-1.125 0 -1.125 0 0 0 Z " fill="#C3F0F8" transform="translate(557,363)"/>
<path d="M0 0 C-4.95 2.97 -4.95 2.97 -10 6 C-9.67 4.68 -9.34 3.36 -9 2 C-8.01 2 -7.02 2 -6 2 C-6 1.34 -6 0.68 -6 0 C-4 -1 -4 -1 0 0 Z " fill="#D2F4FA" transform="translate(220,296)"/>
<path d="M0 0 C0.66 0.66 1.32 1.32 2 2 C1.625 4.125 1.625 4.125 1 6 C-0.65 6.33 -2.3 6.66 -4 7 C-2.68 4.69 -1.36 2.38 0 0 Z " fill="#2A4271" transform="translate(654,445)"/>
<path d="M0 0 C4.24822374 0.47202486 6.19989709 2.96655518 9 6 C8.236875 5.690625 7.47375 5.38125 6.6875 5.0625 C4.81210323 4.32106407 2.91315348 3.63771783 1 3 C0.67 2.01 0.34 1.02 0 0 Z " fill="#2EABE2" transform="translate(437,305)"/>
<path d="M0 0 C0.66 0 1.32 0 2 0 C3.32 2.64 4.64 5.28 6 8 C5.34 8.66 4.68 9.32 4 10 C2.68 6.7 1.36 3.4 0 0 Z " fill="#1E3462" transform="translate(110,426)"/>
<path d="M0 0 C3.48331435 3.01887244 4.79157144 5.56909529 6 10 C5.01 9.34 4.02 8.68 3 8 C3 7.01 3 6.02 3 5 C2.01 4.67 1.02 4.34 0 4 C0 2.68 0 1.36 0 0 Z " fill="#30A9E2" transform="translate(128,372)"/>
<path d="M0 0 C1.65 1.65 3.3 3.3 5 5 C3.35 5.33 1.7 5.66 0 6 C0 4.02 0 2.04 0 0 Z " fill="#2A416D" transform="translate(102,399)"/>
</svg>
